<svg xmlns="http://www.w3.org/2000/svg" xmlns:xlink="http://www.w3.org/1999/xlink" version="1.1" id="Layer_1" x="0px" y="0px"
       width="421.661px" height="423.264px"
       viewBox="0 0 421.661 423.264" enable-background="new 0 0 421.661 423.264"
       xml:space="preserve">
    <g id="t7kW9o_1_">
      <g>
        <path fill-rule="evenodd" clip-rule="evenodd" fill="black" d="M281.898,342.482c8.448-6.854,17.564-13.042,25.201-20.704    c13.698-13.744,25.378-29.383,32.358-47.558c5.017-13.061,7.601-27.062,11.083-40.692c0.194-0.761,2.344-4.336-1.882-3.039    c0.243-1.681-0.09-3.841,0.837-4.95c2.855-3.42,2.883-8.321-0.412-11.496c-0.44-0.426-0.853-1.092-0.902-1.678    c-0.516-6.138-0.99-12.281-1.354-18.431c-0.031-0.54,0.811-1.131,1.246-1.698c0.419,0.62,1.167,1.221,1.203,1.863    c0.264,4.592,0.325,9.196,0.598,13.788c0.052,0.875,0.755,1.713,1.157,2.566c0.189-0.858,0.584-1.729,0.54-2.576    c-1.027-19.72-4.217-39.022-11.972-57.31c-4.12-9.715-7.969-19.676-13.332-28.698c-6.087-10.238-13.806-19.597-23.59-26.662    c-21.449-15.488-45.3-25.013-71.948-25.573c-18.405-0.387-36.46,2.285-53.315,10.664c-9.031,4.489-18.418,8.255-27.547,12.554    c-2.325,1.095-4.184,3.142-6.44,4.433c-1.351,0.773-3.054,0.931-4.602,1.358c-0.421,0.116-0.993,0.065-1.253,0.329    c-6.87,6.952-13.819,13.83-20.51,20.951c-4.491,4.779-8.708,9.829-12.831,14.933c-1.318,1.633-2.037,3.788-2.866,5.772    c-2.837,6.789-5.724,13.562-8.352,20.433c-1.883,4.923-3.313,10.017-5.117,14.972c-0.325,0.894-1.482,1.484-2.255,2.214    c0.128-1.301,0.084-2.65,0.428-3.892c0.422-1.525,1.532-2.917,1.716-4.443c1.415-11.707,5.276-22.664,11.178-32.708    c11.668-19.857,27.207-36.078,47.281-47.702c8.309,0.226,13.93-5.874,20.795-8.999c6.721-3.059,12.887-7.336,19.599-10.42    c4.774-2.193,10.057-3.271,15.093-4.906c0.713-0.231,1.317-0.799,1.972-1.211c-0.828-0.279-1.777-0.974-2.465-0.772    c-6.074,1.777-12.059,3.867-18.16,5.534c-2.826,0.772-5.853,0.813-8.789,1.186c-0.127-1.385-0.389-2.776-0.332-4.153    c0.037-0.887,0.54-1.755,0.834-2.631c-0.949,0.104-2.022-0.044-2.827,0.353c-6.311,3.117-13.869,3.457-19.257,8.69    c-0.623,0.604-1.966,0.467-2.975,0.673c0.666-0.863,1.169-1.961,2.023-2.552c8.162-5.641,16.578-10.745,26.467-12.933    c1.662-0.368,3.07-1.879,4.596-2.862c-1.704,0.476-3.493,0.763-5.091,1.476c-2.001,0.893-4.211,2.488-5.102-0.725    c-0.278-1.002,1.712-2.714,2.809-3.975c0.387-0.444,1.249-0.44,1.817-0.771c0.678-0.395,1.275-0.929,1.907-1.403    c-0.771,0.02-1.621-0.167-2.303,0.09c-5.881,2.215-11.915,4.135-17.549,6.871c-8.199,3.982-16.662,7.801-23.981,13.11    c-7.712,5.595-14.252,12.818-21.223,19.416c-3.141,2.973-6.104,6.136-9.093,9.264c-0.387,0.404-0.448,1.119-0.66,1.69    c0.498-0.248,1.087-0.397,1.48-0.76c4.275-3.943,8.423-8.033,12.854-11.792c0.897-0.761,1.586-5.375,4.108-1.122    c0.511-0.346,1.1-0.617,1.515-1.054c0.735-0.774,1.364-1.648,2.037-2.481c-0.176,1.221-0.217,2.482-0.571,3.649    c-0.283,0.931-0.962,1.738-1.438,2.615c-0.521,0.96-1.012,1.937-1.517,2.907c0.944-0.163,1.886-0.437,2.832-0.454    c0.72-0.013,1.447,0.302,2.17,0.471c-0.267,0.73-0.396,1.557-0.825,2.176c-2.234,3.22-4.338,6.569-6.92,9.491    c-1.176,1.331-3.887,1.35-4.976,2.706c-4.187,5.214-8.299,10.539-11.868,16.183c-3.704,5.86-6.724,12.151-10.111,18.216    c-0.353,0.632-1.536,1.543-1.713,1.421c-4.963-3.411-4.198,1.969-5.284,3.687c-2.214,3.501-3.826,7.378-5.772,11.056    c-0.364,0.688-1.72,1.307-1.621,1.716c1.698,7.028-4.497,12.076-4.582,18.585c-0.064,4.923-0.79,9.92,2.145,14.505    c0.933,1.458,1.161,3.517,1.273,5.328c0.797,12.812-0.089,25.818,4.637,38.157c0.352,0.918,0.674,1.914,0.682,2.877    c0.006,0.73-0.51,1.465-0.794,2.197c-0.581-0.594-1.513-1.101-1.686-1.797c-1.403-5.627-2.598-11.306-4.018-16.928    c-0.309-1.224-1.269-2.283-1.928-3.418c-0.043,1.269-0.285,2.567-0.099,3.801c2.139,14.193,4.982,28.193,12.813,40.568    c2.124,3.357,4.765,6.383,7.087,9.619c2.528,3.522,4.986,7.097,7.405,10.695c0.313,0.467,0.213,1.211,0.305,1.827    c-0.576-0.201-1.172-0.358-1.724-0.61c-2.115-0.969-4.203-1.998-6.335-2.926c-0.346-0.15-0.864,0.097-1.303,0.16    c0.298,0.582,0.469,1.295,0.914,1.729c5.446,5.307,10.93,10.575,16.415,15.843c0.234,0.225,0.609,0.301,0.848,0.522    c2.508,2.331,5.001,4.678,7.498,7.02c-2.752-1.099-5.416-2.734-8.272-3.207c-14.76-2.443-20.083-15.216-28.076-25.102    c-0.706-0.873-1.812-1.421-2.732-2.12c0.346,1.008,0.912,1.997,1.003,3.026c0.627,7.121,5.138,11.918,9.748,16.694    c0.337,0.349,0.236,1.121,0.338,1.696c-0.704-0.275-1.668-0.345-2.072-0.857c-4.204-5.336-8.406-10.678-12.422-16.154    c-2.292-3.126-4.234-6.508-6.358-9.76c-0.161-0.246-0.515-0.365-0.779-0.543c-0.146,0.576-0.537,1.223-0.398,1.721    c1.026,3.656,1.808,7.441,3.354,10.877c1.593,3.539,3.917,6.758,6.028,10.048c0.494,0.771,1.731,3.211,1.804-0.271    c0.632,0.055,1.66-0.11,1.831,0.199c1.124,2.033,1.8,4.352,3.113,6.236c3.872,5.56,7.192,11.9,12.254,16.095    c3.423,2.837,6.711,6.549,12.098,7.736c5.754,1.27,10.871,5.394,16.305,8.194c0.917,0.474,2.033,0.562,3.057,0.827    c-0.71-0.666-1.397-1.361-2.139-1.989c-0.634-0.536-1.413-0.92-1.976-1.514c-0.424-0.447-0.609-1.121-0.9-1.693    c0.727,0.004,1.591-0.25,2.16,0.052c6.952,3.687,14.284,6.293,21.979,7.882c0.689,0.143,1.816,0.223,2.12-0.159    c1.831-2.306,1.683-2.13,4.369-1.081c3.062,1.196,6.242,2.323,9.471,2.812c11.473,1.733,18.403,9.705,24.177,18.415    c3.192,4.816,8.423,8.907,8.593,15.335c0.103,3.909,0.372,8.429-1.344,11.66c-5.946,11.198-12.166,22.568-26.474,25.085    c-1.365,0.24-2.834-0.135-4.21,0.071c-2.45,0.368-4.936,0.745-7.284,1.501c-9.292,2.99-18.959,4.038-27.693-0.245    c-10.234-5.02-20.362-10.822-29.259-17.892c-21.698-17.242-42.4-35.797-60.334-56.968C23.28,313.55,12.324,291.415,5.521,267.46    c-2.386-8.4-3.728-17.188-4.631-25.893c-0.908-8.756-0.716-17.63-0.89-26.455c-0.018-0.929,0.753-1.873,1.158-2.811    c0.298,0.994,0.717,1.971,0.875,2.987c2.485,15.888,4.814,31.802,7.515,47.652c0.455,2.671,2.482,5.075,3.783,7.603    c-0.322-2.688-0.407-5.431-1.011-8.055c-2.191-9.515-6.13-18.928-6.505-28.494c-0.642-16.357,0.353-32.849,1.767-49.189    c0.731-8.453,3.254-16.897,5.997-24.998c5.22-15.417,11.155-30.594,16.893-45.833c0.314-0.835,1.533-1.329,2.331-1.981    c0.008,0.923,0.157,1.872-0.004,2.764c-0.327,1.804-0.821,3.578-1.247,5.365c1-1.705,1.929-3.457,3.021-5.101    c1.023-1.542,2.217-2.969,3.336-4.447c-0.158,1.927,0.016,3.958-0.55,5.756c-0.894,2.842-2.346,5.505-3.434,8.293    c-0.466,1.195-0.818,2.513-0.836,3.78c-0.013,0.912,0.613,1.833,0.955,2.751c0.566-0.692,1.22-1.331,1.676-2.088    c0.686-1.138,1.2-2.377,1.848-3.54c0.619-1.11,1.315-2.178,1.978-3.265c0.264,1.079,0.49,2.169,0.81,3.232    c0.113,0.376,0.634,0.994,0.667,0.976c0.676-0.389,1.306-0.856,1.949-1.301c1.133-0.782,2.271-1.56,3.406-2.339    c-0.215,1.396-0.221,2.866-0.678,4.178c-4.212,12.091-8.599,24.123-12.697,36.251c-0.938,2.776-0.983,5.858-1.378,8.808    c-0.047,0.353,0.291,0.757,0.45,1.138c0.285-0.354,0.693-0.665,0.836-1.07c1.227-3.45,2.313-6.952,3.614-10.372    c4.24-11.145,8.553-22.262,12.839-33.389c0.12-0.311,0.193-0.681,0.41-0.905c0.846-0.876,1.741-1.705,2.618-2.551    c-0.251,1.071-0.303,2.245-0.79,3.196c-1.667,3.26-3.532,6.417-5.206,9.674c-0.312,0.608-0.09,1.492-0.114,2.249    c0.43-0.432,0.881-0.845,1.285-1.301c0.788-0.891,1.548-1.806,2.319-2.71c0.117,1.385,0.641,2.891,0.274,4.133    c-1.082,3.653-2.533,7.195-3.792,10.797c-0.153,0.438-0.014,0.979-0.009,1.473c0.292-0.204,0.685-0.343,0.859-0.62    c3.244-5.144,6.502-10.278,9.638-15.487c0.441-0.733,3.045-2.737-0.739-2.431c0.908-2.017,1.478-4.305,2.815-5.978    c1.441-1.803,3.938-2.76,5.389-4.558c5.442-6.739,10.65-13.666,15.935-20.532c1.811-2.354,3.522-4.787,5.39-7.095    c8.899-10.995,20.572-18.979,31.626-27.367c7.729-5.865,17.545-9.079,26.614-13.054c9.883-4.331,20.06-7.992,29.935-12.341    c2.915-1.284,5.182-3.988,7.85-5.896c1.903-1.361,3.837-3.116,6.004-3.605c21.086-4.769,42.008-3.655,62.982,1.392    c17.852,4.296,35.27,9.612,51.248,18.75c14.83,8.481,29.461,17.316,41.659,29.593c2.038,2.051,5.066,3.089,7.516,4.772    c0.878,0.604,1.511,1.668,2.033,2.642c0.277,0.517-0.194,1.563,0.143,1.899c1.812,1.805,3.772,3.462,5.683,5.17    c-0.665-1.903-0.988-4.03-2.062-5.665c-2.729-4.157-5.491-8.362-8.784-12.064c-7.899-8.882-15.379-18.263-25.581-24.76    c-3.639-2.318-7.559-4.195-11.197-6.513c-2.479-1.58-4.774-3.483-6.993-5.423c-1.062-0.928-1.756-2.276-2.616-3.434    c1.456,0.586,3.001,1.015,4.352,1.787c4.563,2.607,8.656,5.972,14.505,5.912c1.602-0.017,3.01,3.314,4.896,4.477    c4.441,2.739,9.073,5.185,13.734,7.541c1.02,0.516,2.484,0.233,3.737,0.173c0.787-0.038,1.561-0.348,2.34-0.536    c-0.448-0.642-0.834-1.341-1.359-1.912c-0.67-0.729-1.509-1.304-2.173-2.038c-0.695-0.769-1.271-1.646-1.897-2.477    c1.749,0.11,5.003,0.078,5.028,0.351c0.645,6.817,7.834,5.134,11.265,8.392c1.304,1.237,2.921,2.365,4.247,4.066    c2.848,3.654,6.362,6.779,9.439,10.265c11.735,13.291,21.53,27.929,28.692,44.126c4.96,11.215,10.172,22.568,13.031,34.401    c3.89,16.092,5.82,32.674,8.23,49.099c1.103,7.515,2.3,15.226,1.748,22.722c-0.812,11.041-3,21.996-4.886,32.939    c-1.349,7.823-3.664,15.504-4.646,23.361c-1.394,11.141-5.647,20.878-11.96,29.99c-1.213,1.752-0.657,4.645-1.655,6.642    c-7.686,15.371-17.744,28.994-29.051,41.994c-4.885,5.616-9.319,11.652-14.971,16.588c-1.462,1.277-3.361,2.062-5.086,3.023    c-0.993,0.555-2.534,0.741-2.983,1.558c-2.871,5.226-7.367,8.128-12.905,9.756c-0.61,0.18-1.17,0.633-1.677,1.052    c-4.401,3.625-8.78,7.277-13.18,10.904c-0.634,0.522-1.279,1.126-2.026,1.403c-9.299,3.455-18.515,7.181-27.96,10.179    c-9.289,2.948-18.807,5.188-28.255,7.613c-1.12,0.287-2.442-0.209-3.671-0.341c1.002-0.645,1.924-1.566,3.021-1.891    c14.797-4.375,29.774-8.249,43.551-15.469c5.446-2.854,10.771-5.94,16.125-8.966c0.498-0.281,0.812-0.888,1.212-1.344    c-0.576,0.101-1.154,0.188-1.728,0.305c-4.279,0.87-7.688,2.857-11.371,5.525c-5.588,4.045-12.795,5.852-19.314,8.61    c-2.909,1.231-5.785,2.555-8.746,3.644c-0.784,0.287-1.83-0.14-2.756-0.238c0.631-0.669,1.143-1.563,1.911-1.972    c4.993-2.648,10.173-4.972,15.046-7.818c8.686-5.072,17.295-10.292,25.738-15.755c3.734-2.416,7.004-5.556,10.44-8.419    c0.59-0.492,0.96-1.248,1.431-1.882c-0.714,0.179-1.471,0.264-2.13,0.563c-0.591,0.269-1.033,0.857-1.618,1.149    c-0.537,0.268-1.177,0.328-1.771,0.48c0.225-0.689,0.239-1.629,0.71-2.026c2.798-2.354,5.835-4.434,8.543-6.881    c6.04-5.457,11.941-11.068,17.874-16.643c0.578-0.543,0.985-1.268,1.472-1.908c-0.679,0.315-1.461,0.506-2.021,0.966    c-5.426,4.466-10.633,9.224-16.289,13.37c-2.857,2.094-4.688,8.074-10.21,3.861c-0.292-0.223-2.022,1.396-3.054,2.195    c-13.064,10.12-27.138,18.574-42.179,25.407c-0.728,0.331-1.729,0.059-2.604,0.067c0.695-0.638,1.302-1.428,2.099-1.888    c8.219-4.741,16.509-9.358,24.67-14.193c1.516-0.897,2.547-2.611,3.802-3.948c-1.405,0.752-2.788,1.55-4.22,2.248    c-11.337,5.532-22.679,11.056-34.041,16.535c-0.582,0.28-1.371,0.129-2.064,0.179c0.439-0.443,0.805-1.025,1.33-1.307    c3.358-1.798,6.769-3.499,10.122-5.306c0.796-0.428,1.439-1.137,2.153-1.717c-0.886,0.134-1.844,0.093-2.645,0.427    c-8.426,3.512-16.805,7.138-25.26,10.576c-1.154,0.47-2.653,0.091-3.992,0.105c0.971-0.693,1.924-1.415,2.916-2.075    c4.131-2.749,8.243-5.527,12.42-8.206c6.967-4.47,14.057-8.751,20.949-13.332c7.476-4.97,14.801-10.167,22.137-15.344    c0.697-0.491,0.997-1.545,1.481-2.338c-0.825,0.307-1.743,0.473-2.463,0.942c-6.662,4.347-12.909,9.559-20.036,12.897    c-7.026,3.292-14.929,4.719-22.465,6.899c-0.477,0.139-1.115-0.28-1.679-0.439c0.331-0.505,0.548-1.206,1.015-1.481    c2.29-1.35,4.763-2.414,6.961-3.892c9.486-6.378,18.904-12.857,28.33-19.325c0.655-0.45,1.168-1.108,1.747-1.67    c-0.744,0.123-1.588,0.062-2.214,0.402c-2.037,1.105-3.974,2.392-5.984,3.546c-10.295,5.909-20.589,11.82-30.924,17.659    c-0.919,0.52-2.131,0.521-3.206,0.764c0.608-0.812,1.062-1.847,1.852-2.403c6.819-4.803,13.717-9.495,20.544-14.288    c0.964-0.676,1.676-1.712,2.504-2.581c-1.277,0.147-2.555,0.289-3.83,0.445c-7.045,0.861-11.627,5.883-16.78,9.938    c-1.619,1.273-1.438,1.024-3.053-0.092c-0.649-0.449-2.25,0.55-3.438,0.785c-1.305,0.259-2.635,0.397-3.953,0.589    c0.952-0.862,1.818-1.854,2.871-2.567c10.57-7.163,21.18-14.27,31.741-21.445c0.54-0.367,0.749-1.221,1.113-1.848    c-0.601,0.199-1.188,0.468-1.805,0.586c-1.534,0.294-3.082,0.521-4.624,0.774L281.898,342.482z M232.063,40.869    c-3.608,0.319-6.245,0.54-8.879,0.793c-0.645,0.062-1.279,0.231-1.918,0.351c0.721,0.114,1.443,0.223,2.164,0.342    c5.7,0.94,11.44,1.692,17.086,2.892c3.629,0.771,7.063,2.424,10.68,3.284c6.432,1.53,12.953,2.682,19.4,4.151    c2.416,0.551,4.715,1.598,7.102,2.308c0.918,0.273,1.929,0.239,2.897,0.345c-0.726-0.521-1.391-1.17-2.187-1.539    c-3.167-1.469-6.373-2.853-9.569-4.262C256.819,44.234,244.088,42.12,232.063,40.869z M59.965,143.351    c1.262-1.469,1.913-2.007,2.285-2.695c3.449-6.372,6.691-12.86,10.312-19.131c3.333-5.773,6.898-11.429,10.67-16.925    c2.416-3.52,5.408-6.642,8.1-9.977c0.379-0.469,0.514-1.135,0.762-1.71c-0.635,0.333-1.383,0.546-1.89,1.017    c-11.321,10.52-19.102,23.677-27.055,36.674c-1.706,2.788-2.6,6.095-3.683,9.227C59.208,140.582,59.688,141.588,59.965,143.351z     M323.655,81.27c-0.316-0.383-0.59-0.812-0.955-1.142c-4.417-3.983-8.519-8.42-13.353-11.812    c-6.761-4.743-14.035-8.765-21.19-12.921c-0.859-0.5-2.346,0.079-3.543,0.158c0.598,1.078,0.921,2.594,1.834,3.165    c7.852,4.9,15.848,9.568,23.721,14.435c4.071,2.516,7.979,5.294,11.96,7.956c0.413,0.276,0.821,0.562,1.231,0.843    C323.455,81.728,323.55,81.504,323.655,81.27z M156.978,54.136c-0.046-0.755-0.061-1.007-0.076-1.258    c-0.476,0.111-1.007,0.121-1.417,0.35c-1.869,1.042-3.742,2.084-5.536,3.246c-1.282,0.83-2.441,1.848-3.655,2.781    c1.461-0.636,2.946-1.224,4.379-1.919C152.851,56.279,154.992,55.148,156.978,54.136z M94.146,115.934    c-0.138-0.54-0.21-0.82-0.283-1.101c-0.35,0.31-0.76,0.572-1.039,0.936c-2.294,2.998-4.573,6.009-6.833,9.033    c-0.286,0.382-0.441,0.862-0.657,1.296c0.281,0.061,0.74,0.262,0.817,0.163C88.871,122.793,91.556,119.297,94.146,115.934z"/>
        <path fill-rule="evenodd" clip-rule="evenodd" fill="black" d="M346.825,217.64c-2.63,14.27-5.275,28.535-7.888,42.807    c-3.681,20.108-15.921,35.836-27.059,52.019c-3.624,5.268-9.001,9.347-13.71,13.829c-0.622,0.593-2.034,0.356-3.08,0.504    c0.461-0.65,0.832-1.393,1.395-1.937c10.25-9.919,18.622-21.32,25.812-33.548c4.283-7.285,8.685-14.701,11.514-22.603    c8.026-22.414,10.316-45.656,7.461-69.308c-0.954-7.904-2.595-15.726-3.854-23.595c-0.145-0.906,0.143-1.88,0.229-2.823    c0.483,0.763,1.172,1.466,1.412,2.298c0.78,2.695,0.953,5.652,2.154,8.122c4.22,8.672,1.364,18.283,3.933,27.153    c0.636,2.196,0.552,4.601,0.8,6.909C346.237,217.527,346.531,217.583,346.825,217.64z"/>
        <path fill-rule="evenodd" clip-rule="evenodd" fill="black" d="M131.236,36.199c-0.772,0.513-1.53,1.05-2.32,1.534    c-5.53,3.389-11.312,6.427-16.552,10.214c-12.677,9.16-23.691,20.156-34.153,31.757c-2.457,2.724-5.878,4.582-8.876,6.811    c-0.379,0.283-0.88,0.402-1.325,0.597c0.05-0.612-0.122-1.386,0.187-1.812c2.045-2.824,3.897-5.875,6.362-8.292    c8.259-8.099,16.467-16.293,25.26-23.787c4.881-4.16,10.864-7.037,16.394-10.422c3.934-2.409,7.91-4.751,11.935-7.002    c0.786-0.439,1.883-0.321,2.836-0.46C131.068,35.624,131.152,35.911,131.236,36.199z"/>
        <path fill-rule="evenodd" clip-rule="evenodd" fill="black" d="M227.69,10.108c-7.261,0.568-15.095,1.196-22.933,1.77    c-0.824,0.06-1.672-0.204-2.509-0.318c0.474-0.605,0.82-1.465,1.441-1.779c9.274-4.693,18.981-7.458,29.5-6.184    c1.113,0.135,2.51,0.504,3.169,1.28c1.243,1.463,2.046,3.302,3.03,4.985c-1.387,0.209-2.771,0.581-4.159,0.591    C232.914,10.47,230.596,10.255,227.69,10.108z"/>
        <path fill-rule="evenodd" clip-rule="evenodd" fill="black" d="M219.052,18.555c-4.563,0-9.126,0.034-13.688-0.039    c-0.639-0.01-1.269-0.545-1.903-0.838c0.523-0.324,1.019-0.875,1.572-0.938c7.913-0.917,15.828-1.826,23.76-2.553    c0.861-0.079,1.828,0.979,2.745,1.51c-0.718,0.631-1.357,1.669-2.165,1.821c-3.395,0.639-6.839,1.014-10.266,1.485    C219.088,18.853,219.069,18.704,219.052,18.555z"/>
        <path fill-rule="evenodd" clip-rule="evenodd" fill="black" d="M68.494,74.75c-1.028-1.569-2.398-2.845-2.741-4.354    c-0.682-3.004,3.461-6.251,6.758-6.35c1.165-0.035,2.232-2.143,3.417-3.224c0.455-0.416,1.111-0.61,1.676-0.905    c-0.091,0.664,0.009,1.439-0.305,1.972c-2.219,3.769-4.49,7.508-6.828,11.203C70.064,73.733,69.261,74.123,68.494,74.75z"/>
        <path fill-rule="evenodd" clip-rule="evenodd" fill="black" d="M207.717,21.29c0.989,0.111,1.978,0.215,2.965,0.335    c0.326,0.04,0.647,0.118,0.97,0.179c-0.377,0.16-0.741,0.397-1.134,0.469c-3.409,0.627-6.86,1.068-10.228,1.865    c-6.592,1.559-13.135,3.33-19.712,4.953c-0.568,0.14-1.244-0.161-1.87-0.257c0.333-0.44,0.592-1.167,1.012-1.277    c9.245-2.427,18.507-4.785,27.767-7.156C207.564,20.698,207.641,20.994,207.717,21.29z"/>
        <path fill-rule="evenodd" clip-rule="evenodd" fill="black" d="M281.976,342.382c-2.033,1.381-3.561,3.089-5.152,5.019    c-3.045,3.69-8.25,5.641-12.687,8.081c-0.47,0.259-1.792-1.029-2.719-1.6c0.812-0.213,1.616-0.452,2.435-0.631    c0.768-0.167,2.101-0.062,2.24-0.432c1.617-4.293,7.02-3.898,9.199-7.643c1.005-1.727,3.153-2.818,4.895-4.04    c0.171-0.12,1.121,0.871,1.711,1.346C281.898,342.482,281.976,342.382,281.976,342.382z"/>
        <path fill-rule="evenodd" clip-rule="evenodd" fill="black" d="M182.66,14.202c0.617,0.138,1.234,0.277,1.851,0.416    c-0.434,0.328-0.819,0.805-1.308,0.961c-6.433,2.065-12.879,4.09-19.328,6.105c-0.43,0.134-0.912,0.103-1.37,0.149    c0.356-0.412,0.631-1.024,1.081-1.206c6.185-2.503,12.395-4.946,18.598-7.405C182.343,13.548,182.501,13.875,182.66,14.202z"/>
        <path fill-rule="evenodd" clip-rule="evenodd" fill="black" d="M330.597,150.843c0.95,1.208,1.51,1.657,1.724,2.233    c1.67,4.491,3.327,8.989,4.84,13.534c0.233,0.699-0.294,1.652-0.47,2.487c-0.472-0.583-1.127-1.095-1.385-1.76    c-1.735-4.48-3.427-8.979-5.021-13.51C330.055,153.174,330.423,152.31,330.597,150.843z"/>
        <path fill-rule="evenodd" clip-rule="evenodd" fill="black" d="M114.249,60.572c-0.843,0.54-1.74,1.011-2.521,1.63    c-3.162,2.508-6.263,5.093-9.451,7.566c-0.519,0.403-1.364,0.386-2.058,0.563c0.185-0.576,0.193-1.351,0.582-1.696    c3.459-3.073,6.948-6.116,10.536-9.036c0.483-0.393,1.562-0.054,2.365-0.054C113.884,59.888,114.066,60.229,114.249,60.572z"/>
        <path fill-rule="evenodd" clip-rule="evenodd" fill="black" d="M193.679,10.779c1.291,0.891,2.102,1.451,2.914,2.011    c-2.441,0.899-4.848,1.917-7.347,2.607c-0.578,0.16-1.466-0.805-2.211-1.253C189.189,13.054,191.343,11.963,193.679,10.779z"/>
        <path fill-rule="evenodd" clip-rule="evenodd" fill="black" d="M242.63,387.153c1.508,0.312,2.272,0.472,3.037,0.63    c-0.635,0.444-1.26,0.906-1.91,1.326c-0.416,0.269-0.849,0.549-1.314,0.699c-3.256,1.057-6.523,2.08-9.787,3.115    c0.025-0.266-0.039-0.706,0.089-0.771C236.195,390.377,239.665,388.642,242.63,387.153z"/>
        <path fill-rule="evenodd" clip-rule="evenodd" fill="black" d="M56.967,104.813c-0.093-0.708-0.371-1.309-0.179-1.602    c1.981-3.026,4.019-6.016,6.103-8.973c0.222-0.315,0.833-0.355,1.265-0.522c0.062,0.43,0.332,0.999,0.152,1.27    c-1.992,3.008-4.047,5.976-6.109,8.938C58.023,104.175,57.678,104.309,56.967,104.813z"/>
        <path fill-rule="evenodd" clip-rule="evenodd" fill="black" d="M80.161,91.667c-0.203-1.579-0.547-2.355-0.303-2.661    c2.044-2.556,4.163-5.057,6.352-7.49c0.341-0.379,1.151-0.367,1.755-0.445c0.078-0.01,0.409,0.678,0.315,0.792    C85.825,84.88,83.329,87.863,80.161,91.667z"/>
        <path fill-rule="evenodd" clip-rule="evenodd" fill="black" d="M218.643,3.29c-1.843-0.564-2.974-0.91-4.104-1.256    c1.15-0.693,2.25-1.844,3.462-1.977c1.964-0.214,4.001,0.239,6.008,0.41C222.15,1.444,220.293,2.421,218.643,3.29z"/>
      </g>
    </g>
  </svg>